<svg xmlns="http://www.w3.org/2000/svg" shape-rendering="geometricPrecision" text-rendering="geometricPrecision" image-rendering="optimizeQuality" fill-rule="evenodd" clip-rule="evenodd" viewBox="0 0 512 512"><path d="M256 0c141.385 0 256 114.615 256 256S397.385 512 256 512 0 397.385 0 256 114.615 0 256 0z"/><path fill="#fff" d="M60.613 256c0-107.915 87.472-195.387 195.387-195.387 107.914 0 195.387 87.472 195.387 195.387 0 107.914-87.473 195.387-195.387 195.387-107.915 0-195.387-87.473-195.387-195.387zm226.2 87.057l19.172 21.568c47.775-22.556 62.757-64.247 66.14-80.489-17.474 17.889-36.794 36.024-49.801 23.469 0 0-.706-66.979-.706-94.46 0-36.952 35.022-64.479 35.022-64.479-19.256 3.43-42.398 10.293-66.943 34.391a93.304 93.304 0 00-6.3 6.928c-10.528-8.059-24.167-5.632-24.167-5.632 7.376 4.044 14.742 15.841 14.742 25.598v95.924s-16.071 14.127-28.454 14.127c-.055-.004-.111-.004-.166-.004a17.468 17.468 0 01-14.16-7.242 19.189 19.189 0 01-2.419-4.177V190.054c-3.665 3.028-16.034 5.52-16.034-15.019 0-12.762 9.207-27.965 25.569-37.293a120.604 120.604 0 00-60.721 28.016c-26.133 22.574-41.161 55.432-41.161 89.979v1.144c0 .379 11.982-37.404 26.964-40.847a14.976 14.976 0 013.702-.471c7.998 0 14.483 6.485 14.483 14.484 0 .162-.005.332-.009.494v87.837c0 8.903-5.742 10.846-11.04 10.745a46.289 46.289 0 01-10.593-2.003c22.173 30.028 57.172 47.978 94.493 48.476l32.387-32.539z"/></svg>